<?xml version="1.0" standalone="no"?><!DOCTYPE svg PUBLIC "-//W3C//DTD SVG 1.1//EN" "http://www.w3.org/Graphics/SVG/1.1/DTD/svg11.dtd"><svg t="1589190491496" class="icon" viewBox="0 0 1024 1024" version="1.1" xmlns="http://www.w3.org/2000/svg" p-id="3474" xmlns:xlink="http://www.w3.org/1999/xlink" width="100" height="100"><defs><style type="text/css"></style></defs><path d="M126.2 64.2h20v41h-20zM146.2 889.6h-20V806h20v83.6z m0-112.1h-20V694h20v83.5z m0-112h-20V582h20v83.5z m0-112.1h-20v-83.5h20v83.5z m0-112h-20v-83.5h20v83.5z m0-112.1h-20v-83.5h20v83.5z m0-112h-20v-83.5h20v83.5zM126.2 918.1h20v41h-20z" fill="#47B5B5" p-id="3475"></path><path d="M262.3 639.3H815v268.3H262.3zM262.3 244.4h420.1v268.3H262.3z" fill="#CFCFCF" p-id="3476"></path><path d="M612.8 814.7l117.2-272H488L756.6 153c3.7-5.3 11.9-0.8 9.4 5.1L634.8 466.9h242L615.1 816c-1 1.2-2.9 0.1-2.3-1.3z" fill="#47B5B5" p-id="3477"></path></svg>