<?xml version="1.0" standalone="no"?><!DOCTYPE svg PUBLIC "-//W3C//DTD SVG 1.1//EN" "http://www.w3.org/Graphics/SVG/1.1/DTD/svg11.dtd"><svg t="1589190512599" class="icon" viewBox="0 0 1024 1024" version="1.1" xmlns="http://www.w3.org/2000/svg" p-id="4088" xmlns:xlink="http://www.w3.org/1999/xlink" width="100" height="100"><defs><style type="text/css"></style></defs><path d="M866.797037 747.235556c-35.271111-153.315556-169.623704-264.817778-330.903704-274.962963V323.318519a134.352593 134.352593 0 1 0-48.355555 0v148.859259c-161.185185 10.24-295.632593 121.742222-330.903704 274.962963a110.364444 110.364444 0 1 0 48.924445 4.077037C238.174815 623.502222 351.668148 530.962963 487.727407 520.817778V749.037037a110.459259 110.459259 0 1 0 48.545186 0V521.481481C672.237037 530.962963 785.73037 623.502222 818.251852 751.312593a110.648889 110.648889 0 1 0 48.545185-4.077037zM234.192593 856.557037a62.008889 62.008889 0 1 1-62.008889-62.008889h3.697777a62.198519 62.198519 0 0 1 58.311112 61.914074z m191.715555-665.315556A85.902222 85.902222 0 1 1 512 277.048889a85.997037 85.997037 0 0 1-85.902222-85.902222z m147.911111 665.315556A62.008889 62.008889 0 1 1 512 794.453333a62.103704 62.103704 0 0 1 62.008889 62.008889z m277.617778 62.008889a62.008889 62.008889 0 0 1-3.697778-123.922963h3.602963a62.008889 62.008889 0 0 1 0 124.112593z m0 0" fill="#0097FF" p-id="4089"></path></svg>