<?xml version="1.0" standalone="no"?><!DOCTYPE svg PUBLIC "-//W3C//DTD SVG 1.1//EN" "http://www.w3.org/Graphics/SVG/1.1/DTD/svg11.dtd"><svg t="1589190457534" class="icon" viewBox="0 0 1024 1024" version="1.1" xmlns="http://www.w3.org/2000/svg" p-id="2297" xmlns:xlink="http://www.w3.org/1999/xlink" width="100" height="100"><defs><style type="text/css"></style></defs><path d="M650.2 361.3c34.7 0 62.8 28.1 62.8 62.8 0 34.7-28.1 62.8-62.8 62.8-34.7 0-62.8-28.1-62.8-62.8 0-34.7 28.1-62.8 62.8-62.8zM373.8 361.3c34.7 0 62.8 28.1 62.8 62.8 0 34.7-28.1 62.8-62.8 62.8-34.7 0-62.8-28.1-62.8-62.8 0-34.7 28.1-62.8 62.8-62.8z" fill="#29CCB6" p-id="2298"></path><path d="M511.3 775.8c-95.2 0-184.7-54.8-233.5-142.9-10.1-18.2-3.5-41.1 14.7-51.2 18.1-10 41.1-3.5 51.2 14.7 36.1 65.1 98.7 104 167.6 104 69.5 0 132.5-39.5 168.4-105.6 10-18.3 32.9-25 51.1-15.1 18.3 10 25.1 32.8 15.1 51.1-48.6 89.4-138.5 145-234.6 145z" fill="#29CCB6" p-id="2299"></path><path d="M512 992C247.3 992 32 776.7 32 512S247.3 32 512 32s480 215.3 480 480-215.3 480-480 480z m0-859.5c-209.3 0-379.5 170.2-379.5 379.5S302.7 891.5 512 891.5 891.5 721.3 891.5 512 721.3 132.5 512 132.5z" fill="#4585F5" p-id="2300"></path></svg>